<?xml version="1.0" encoding="UTF-8" standalone="no"?>
<!-- Generator: Adobe Illustrator 18.1.1, SVG Export Plug-In . SVG Version: 6.00 Build 0)  -->

<svg
   xmlns:dc="http://purl.org/dc/elements/1.1/"
   xmlns:cc="http://creativecommons.org/ns#"
   xmlns:rdf="http://www.w3.org/1999/02/22-rdf-syntax-ns#"
   xmlns:svg="http://www.w3.org/2000/svg"
   xmlns="http://www.w3.org/2000/svg"
   xmlns:sodipodi="http://sodipodi.sourceforge.net/DTD/sodipodi-0.dtd"
   xmlns:inkscape="http://www.inkscape.org/namespaces/inkscape"
   version="1.1"
   id="Capa_1"
   x="0px"
   y="0px"
   viewBox="0 0 250.313 250.313"
   style="enable-background:new 0 0 250.313 250.313;"
   xml:space="preserve"
   inkscape:version="0.91 r13725"
   sodipodi:docname="search.svg"><metadata
     id="metadata3468"><rdf:RDF><cc:Work
         rdf:about=""><dc:format>image/svg+xml</dc:format><dc:type
           rdf:resource="http://purl.org/dc/dcmitype/StillImage" /><dc:title></dc:title></cc:Work></rdf:RDF></metadata><defs
     id="defs3466" /><sodipodi:namedview
     pagecolor="#ffffff"
     bordercolor="#666666"
     borderopacity="1"
     objecttolerance="10"
     gridtolerance="10"
     guidetolerance="10"
     inkscape:pageopacity="0"
     inkscape:pageshadow="2"
     inkscape:window-width="1855"
     inkscape:window-height="1056"
     id="namedview3464"
     showgrid="false"
     inkscape:zoom="1.2980371"
     inkscape:cx="-146.70617"
     inkscape:cy="48.957398"
     inkscape:window-x="65"
     inkscape:window-y="24"
     inkscape:window-maximized="1"
     inkscape:current-layer="Search" /><g
     id="Search"
     transform="matrix(0.51371787,0,0,0.51371787,60.861126,60.861126)"><path
       style="fill:#ffffff;stroke:none;stroke-width:1px;stroke-linecap:butt;stroke-linejoin:miter;stroke-opacity:1"
       d="M 104.63017,244.84832 C 101.4134,242.4596 87.077791,228.72424 72.773251,214.32534 l -26.00823,-26.17985 -8.11323,4.39432 c -31.6847704,17.16121 -69.381254,16.40519 -100.656044,-2.01866 -4.72846,-2.78552 -13.74585,-10.15505 -20.03866,-16.37671 -9.27672,-9.17189 -12.75178,-13.99539 -18.366937,-25.49396 -15.18386,-31.09314 -15.17875,-60.26664 0.016,-91.38089 12.831767,-26.27558 37.205977,-45.9156 66.456827,-53.54896 12.87546,-3.36000005 36.5150336,-3.27531005 49.488254,0.17732 36.34291,9.67207 64.78203,38.43283 74.18503,75.02405 5.42004,21.09183 1.64349,51.10694 -8.93759,71.03358 l -5.28617,9.95507 29.095789,29.26905 c 16.00264,16.09798 29.84237,30.74308 30.75492,32.54467 3.90539,7.71017 0.17091,19.67728 -7.62335,24.42936 -7.35012,4.48124 -15.97311,3.99416 -23.10973,-1.3054 z M 2.2246606,169.71212 c 4.4428,-0.8238 12.8520704,-3.83896 18.6872604,-6.70035 41.60698,-20.40268 49.82996,-77.62411 15.69624,-109.2259 C -1.8560394,18.1748 -61.940223,35.90161 -75.189733,86.76994 c -9.4269,36.19233 13.99714,74.20859 50.62721,82.16586 11.65732,2.53236 16.5518296,2.67421 26.7871836,0.77632 z"
       id="path3470"
       inkscape:connector-curvature="0" /></g><g
     id="g3434" /><g
     id="g3436" /><g
     id="g3438" /><g
     id="g3440" /><g
     id="g3442" /><g
     id="g3444" /><g
     id="g3446" /><g
     id="g3448" /><g
     id="g3450" /><g
     id="g3452" /><g
     id="g3454" /><g
     id="g3456" /><g
     id="g3458" /><g
     id="g3460" /><g
     id="g3462" /></svg>